<?xml version="1.0" encoding="utf-8" ?>
<svg baseProfile="tiny" height="200px" version="1.2" width="200px" xmlns="http://www.w3.org/2000/svg" xmlns:ev="http://www.w3.org/2001/xml-events" xmlns:xlink="http://www.w3.org/1999/xlink"><defs /><path d="M100 40 Q80 60, 85 100 Q100 90, 115 100 Q120 60, 100 40" fill="#8E44AD" stroke="#6D309D" stroke-linecap="round" stroke-width="2" /><path d="M100 40 Q60 70, 70 120 Q90 110, 100 140 Q110 110, 130 120 Q140 70, 100 40" fill="#8E44AD" stroke="#6D309D" stroke-linecap="round" stroke-width="2" /><path d="M100 40 Q40 80, 50 150 Q85 130, 100 160 Q115 130, 150 150 Q160 80, 100 40" fill="#8E44AD" stroke="#6D309D" stroke-linecap="round" stroke-width="2" /><line stroke="#C6A769" stroke-linecap="round" stroke-width="3" x1="100" x2="95" y1="40" y2="90" /><line stroke="#C6A769" stroke-linecap="round" stroke-width="3" x1="100" x2="105" y1="40" y2="90" /><line stroke="#C6A769" stroke-linecap="round" stroke-width="3" x1="100" x2="100" y1="40" y2="95" /></svg>